#!OML:ASF F:\VICON\USERDATA\INSTALL\rory3\rory3.ASF
:FULLY-SPECIFIED
:DEGREES
1309
root -2.01511 18.1831 1.73522 6.8086 2.49053 1.10705
lowerback 8.09866 -0.20369 -3.28019
upperback -0.14495 -0.484047 2.07051
thorax -4.65442 -0.13807 4.06693
lowerneck -25.6235 -1.39789 -9.79973
upperneck 26.4306 1.14059 2.93863
head 13.0844 -0.0980661 2.9966
rclavicle 1.13307e-014 7.95139e-016
rhumerus -47.4618 -28.0786 -40.9155
rradius 36.1624
rwrist 6.12551
rhand -34.1004 0.408879
rfingers 7.12502
rthumb -7.27645 -29.446
lclavicle 1.13307e-014 7.95139e-016
lhumerus -44.8581 27.4411 52.3436
lradius 33.6835
lwrist -1.81749
lhand -20.8684 20.1965
lfingers 7.12502
lthumb 5.5014 50.1051
rfemur -18.4423 -10.8217 16.6715
rtibia 41.6871
rfoot -9.45876 -1.34388
rtoes 10.8344
lfemur -15.4098 2.30858 -15.7692
ltibia 33.6991
lfoot -6.2096 -1.20041
ltoes -32.188
1310
root -2.01253 18.2058 1.7472 6.86613 2.46647 1.00515
lowerback 7.77404 -0.213592 -3.14762
upperback -0.110828 -0.474779 2.11058
thorax -4.43735 -0.141574 4.02706
lowerneck -25.7404 -1.34566 -9.75133
upperneck 26.5145 1.23203 2.87295
head 13.1362 -0.0656708 2.98246
rclavicle 7.15625e-015 -1.98785e-015
rhumerus -47.3 -28.1922 -40.9761
rradius 36.1423
rwrist 6.15815
rhand -34.0151 0.456592
rfingers 7.12502
rthumb -7.19413 -29.4011
lclavicle 7.15625e-015 -1.98785e-015
lhumerus -44.7452 27.4707 52.4242
lradius 33.6904
lwrist -1.50436
lhand -20.9914 19.8358
lfingers 7.12502
lthumb 5.38268 49.7475
rfemur -18.0281 -10.4069 16.7978
rtibia 40.8977
rfoot -9.71568 -1.57195
rtoes 10.6844
lfemur -15.0174 1.90128 -15.6629
ltibia 32.953
lfoot -6.04763 -0.855862
ltoes -32.1899
1311
root -2.00899 18.2248 1.75775 6.9191 2.43491 0.92953
lowerback 7.53371 -0.216777 -2.99618
upperback -0.137874 -0.459387 2.11931
thorax -4.33257 -0.139078 3.94513
lowerneck -25.7333 -1.31772 -9.71067
upperneck 26.561 1.269 2.82984
head 13.1519 -0.0531869 2.96649
rclavicle 8.94531e-016 4.77083e-015
rhumerus -47.2053 -28.2843 -40.9741
rradius 36.075
rwrist 6.21882
rhand -34.2453 0.90019
rfingers 7.12502
rthumb -7.41639 -28.9498
lclavicle 8.94531e-016 4.77083e-015
lhumerus -44.619 27.2777 52.6113
lradius 33.6808
lwrist -0.628892
lhand -22.0514 20.0938
lfingers 7.12502
lthumb 4.35909 50.029
rfemur -17.6586 -10.0358 16.8853
rtibia 40.1929
rfoot -9.85371 -1.85697
rtoes 10.9346
lfemur -14.6495 1.49065 -15.605
ltibia 32.2844
lfoot -5.92519 -0.462305
ltoes -32.175
1312
root -2.00419 18.238 1.76834 6.91509 2.42366 0.905436
lowerback 7.34617 -0.23248 -2.90178
upperback -0.198596 -0.467452 2.12933
thorax -4.2901 -0.145005 3.90083
lowerneck -25.4523 -1.20828 -9.44725
upperneck 26.5013 1.36277 2.57621
head 13.0688 -0.0187682 2.83514
rclavicle -3.47873e-015 1.11319e-014
rhumerus -47.1491 -28.1847 -40.9902
rradius 36.0617
rwrist 6.16181
rhand -34.5214 1.03238
rfingers 7.12502
rthumb -7.68281 -28.8081
lclavicle -3.47873e-015 1.11319e-014
lhumerus -44.6685 27.2427 52.5404
lradius 33.6526
lwrist -0.697156
lhand -22.0418 20.794
lfingers 7.12502
lthumb 4.36843 50.7289
rfemur -17.2645 -9.65558 16.8921
rtibia 39.5786
rfoot -10.0494 -2.0136
rtoes 11.7479
lfemur -14.2353 1.11619 -15.5983
ltibia 31.6804
lfoot -5.79981 -0.149588
ltoes -32.2137
1313
root -2.00048 18.2469 1.77748 6.94397 2.42854 0.966616
lowerback 7.13226 -0.255226 -2.93218
upperback -0.279641 -0.496034 2.12224
thorax -4.2514 -0.158172 3.91144
lowerneck -25.143 -1.10573 -9.17712
upperneck 26.4644 1.42866 2.36592
head 12.9912 0.00982154 2.71551
rclavicle 5.96354e-016 -1.66979e-014
rhumerus -47.1513 -28.0625 -41.0021
rradius 36.1253
rwrist 6.06084
rhand -34.5024 0.573899
rfingers 7.12502
rthumb -7.66451 -29.2672
lclavicle 5.96354e-016 -1.66979e-014
lhumerus -44.7501 27.4425 52.2032
lradius 33.4877
lwrist -1.56052
lhand -21.1113 20.7359
lfingers 7.12502
lthumb 5.26684 50.6505
rfemur -16.9679 -9.4185 16.8141
rtibia 39.0582
rfoot -10.2038 -2.13333
rtoes 12.0208
lfemur -13.9048 0.901341 -15.6877
ltibia 31.1407
lfoot -5.74129 0.033611
ltoes -32.4416
1314
root -1.99718 18.2534 1.78618 6.97245 2.42478 0.980129
lowerback 6.96013 -0.264487 -2.90614
upperback -0.346062 -0.501953 2.13337
thorax -4.22319 -0.161136 3.90712
lowerneck -25.149 -1.20357 -9.46116
upperneck 26.6471 1.34586 2.56596
head 13.0698 -0.0338768 2.83101
rclavicle 9.24349e-015 -5.56597e-015
rhumerus -47.1109 -28.0999 -40.937
rradius 36.1195
rwrist 6.14856
rhand -34.4905 0.210466
rfingers 7.12502
rthumb -7.65297 -29.6311
lclavicle 9.24349e-015 -5.56597e-015
lhumerus -44.7252 27.4677 52.0997
lradius 33.3717
lwrist -1.74991
lhand -20.9652 20.3314
lfingers 7.12502
lthumb 5.40795 50.2424
rfemur -16.7135 -9.27892 16.7909
rtibia 38.6138
rfoot -10.2926 -2.22154
rtoes 11.9054
lfemur -13.6256 0.650596 -15.7342
ltibia 30.6622
lfoot -5.73985 0.292433
ltoes -32.5584
